<svg width="21" height="21" viewBox="0 0 21 21" fill="none" xmlns="http://www.w3.org/2000/svg">
<path d="M5.18476 11.8777L5.53832 11.5242L5.18477 11.8777L7.80976 14.5027C7.80976 14.5027 7.80976 14.5027 7.80977 14.5027C8.38945 15.0824 9.32931 15.0824 9.90899 14.5027L15.8152 8.59649C16.3949 8.01681 16.3949 7.07694 15.8152 6.49726C15.2355 5.91759 14.2958 5.91759 13.7161 6.49726L14.0696 6.85082L13.7161 6.49726L8.85938 11.3539L7.28399 9.77851C6.70431 9.19883 5.76444 9.19883 5.18476 9.77851C4.60508 10.3582 4.60508 11.2981 5.18476 11.8777ZM20.5 10.5C20.5 16.0229 16.0229 20.5 10.5 20.5C4.97715 20.5 0.5 16.0229 0.5 10.5C0.5 4.97715 4.97715 0.5 10.5 0.5C16.0229 0.5 20.5 4.97715 20.5 10.5Z" fill="#24292E" stroke="black"/>
</svg>
